<?xml version="1.0" encoding="UTF-8"?>
<svg xmlns="http://www.w3.org/2000/svg" width="1600" height="825" viewBox="0 0 1600 825">
<rect width="100%" height="100%" fill="#111827"/>
<text x="800" y="44" text-anchor="middle" fill="#f9fafb" font-size="34" font-family="Arial, sans-serif">Cache Benchmark Latency (ns/op)</text>
<text x="800" y="96" text-anchor="middle" fill="#9ca3af" font-size="30" font-family="Arial, sans-serif">Linear split view (grouped bars): top outlier, bottom remaining drivers, lower is better</text>
<rect x="1420" y="116" width="20" height="20" fill="#4e79a7"/>
<text x="1450" y="131" fill="#f3f4f6" font-size="28" font-family="Arial, sans-serif">GetBytes</text>
<rect x="1420" y="148" width="20" height="20" fill="#6ea6d8"/>
<text x="1450" y="163" fill="#f3f4f6" font-size="28" font-family="Arial, sans-serif">GetString</text>
<rect x="1420" y="180" width="20" height="20" fill="#9fc5e8"/>
<text x="1450" y="195" fill="#f3f4f6" font-size="28" font-family="Arial, sans-serif">Get[string]</text>
<rect x="1420" y="212" width="20" height="20" fill="#cfe2f3"/>
<text x="1450" y="227" fill="#f3f4f6" font-size="28" font-family="Arial, sans-serif">Get[T]</text>
<rect x="1420" y="244" width="20" height="20" fill="#59a14f"/>
<text x="1450" y="259" fill="#f3f4f6" font-size="28" font-family="Arial, sans-serif">SetBytes</text>
<rect x="1420" y="276" width="20" height="20" fill="#7bc96f"/>
<text x="1450" y="291" fill="#f3f4f6" font-size="28" font-family="Arial, sans-serif">SetString</text>
<rect x="1420" y="308" width="20" height="20" fill="#a8d08d"/>
<text x="1450" y="323" fill="#f3f4f6" font-size="28" font-family="Arial, sans-serif">Set[string]</text>
<rect x="1420" y="340" width="20" height="20" fill="#c6e0b4"/>
<text x="1450" y="355" fill="#f3f4f6" font-size="28" font-family="Arial, sans-serif">Set[T]</text>
<rect x="1420" y="372" width="20" height="20" fill="#e15759"/>
<text x="1450" y="387" fill="#f3f4f6" font-size="28" font-family="Arial, sans-serif">Delete</text>
<text x="180" y="138" fill="#f3f4f6" font-size="22" font-family="Arial, sans-serif">Outlier: sql_mysql</text>
<line x1="180" y1="372" x2="1400" y2="372" stroke="#374151" stroke-width="1"/>
<text x="170" y="382" text-anchor="end" fill="#d1d5db" font-size="30" font-family="Arial, sans-serif">0</text>
<line x1="180" y1="328" x2="1400" y2="328" stroke="#374151" stroke-width="1"/>
<text x="170" y="338" text-anchor="end" fill="#d1d5db" font-size="30" font-family="Arial, sans-serif">245892</text>
<line x1="180" y1="284" x2="1400" y2="284" stroke="#374151" stroke-width="1"/>
<text x="170" y="294" text-anchor="end" fill="#d1d5db" font-size="30" font-family="Arial, sans-serif">491785</text>
<line x1="180" y1="239" x2="1400" y2="239" stroke="#374151" stroke-width="1"/>
<text x="170" y="249" text-anchor="end" fill="#d1d5db" font-size="30" font-family="Arial, sans-serif">737678</text>
<line x1="180" y1="195" x2="1400" y2="195" stroke="#374151" stroke-width="1"/>
<text x="170" y="205" text-anchor="end" fill="#d1d5db" font-size="30" font-family="Arial, sans-serif">983570</text>
<line x1="180" y1="150" x2="1400" y2="150" stroke="#374151" stroke-width="1"/>
<text x="170" y="160" text-anchor="end" fill="#d1d5db" font-size="30" font-family="Arial, sans-serif">1229463</text>
<line x1="180" y1="372" x2="1400" y2="372" stroke="#e5e7eb" stroke-width="2"/>
<line x1="180" y1="372" x2="180" y2="150" stroke="#e5e7eb" stroke-width="2"/>
<rect x="237" y="358" width="74" height="14" fill="#4e79a7"/>
<rect x="366" y="357" width="74" height="15" fill="#6ea6d8"/>
<rect x="495" y="357" width="74" height="15" fill="#9fc5e8"/>
<rect x="624" y="357" width="74" height="15" fill="#cfe2f3"/>
<rect x="753" y="243" width="74" height="129" fill="#59a14f"/>
<rect x="882" y="242" width="74" height="130" fill="#7bc96f"/>
<rect x="1011" y="171" width="74" height="201" fill="#a8d08d"/>
<rect x="1140" y="177" width="74" height="195" fill="#c6e0b4"/>
<rect x="1269" y="360" width="74" height="12" fill="#e15759"/>
<text x="790" y="454" text-anchor="middle" fill="#d1d5db" font-size="30" font-family="Arial, sans-serif">mysql</text>
<text x="180" y="440" fill="#f3f4f6" font-size="22" font-family="Arial, sans-serif">Remaining drivers</text>
<line x1="180" y1="674" x2="1400" y2="674" stroke="#374151" stroke-width="1"/>
<text x="170" y="684" text-anchor="end" fill="#d1d5db" font-size="30" font-family="Arial, sans-serif">0</text>
<line x1="180" y1="630" x2="1400" y2="630" stroke="#374151" stroke-width="1"/>
<text x="170" y="640" text-anchor="end" fill="#d1d5db" font-size="30" font-family="Arial, sans-serif">130713</text>
<line x1="180" y1="586" x2="1400" y2="586" stroke="#374151" stroke-width="1"/>
<text x="170" y="596" text-anchor="end" fill="#d1d5db" font-size="30" font-family="Arial, sans-serif">261426</text>
<line x1="180" y1="541" x2="1400" y2="541" stroke="#374151" stroke-width="1"/>
<text x="170" y="551" text-anchor="end" fill="#d1d5db" font-size="30" font-family="Arial, sans-serif">392139</text>
<line x1="180" y1="497" x2="1400" y2="497" stroke="#374151" stroke-width="1"/>
<text x="170" y="507" text-anchor="end" fill="#d1d5db" font-size="30" font-family="Arial, sans-serif">522852</text>
<line x1="180" y1="452" x2="1400" y2="452" stroke="#374151" stroke-width="1"/>
<text x="170" y="462" text-anchor="end" fill="#d1d5db" font-size="30" font-family="Arial, sans-serif">653565</text>
<line x1="180" y1="674" x2="1400" y2="674" stroke="#e5e7eb" stroke-width="2"/>
<line x1="180" y1="674" x2="180" y2="452" stroke="#e5e7eb" stroke-width="2"/>
<rect x="191" y="673" width="9" height="1" fill="#4e79a7"/>
<rect x="206" y="673" width="9" height="1" fill="#6ea6d8"/>
<rect x="221" y="673" width="9" height="1" fill="#9fc5e8"/>
<rect x="236" y="673" width="9" height="1" fill="#cfe2f3"/>
<rect x="251" y="673" width="9" height="1" fill="#59a14f"/>
<rect x="266" y="673" width="9" height="1" fill="#7bc96f"/>
<rect x="281" y="673" width="9" height="1" fill="#a8d08d"/>
<rect x="296" y="673" width="9" height="1" fill="#c6e0b4"/>
<rect x="311" y="673" width="9" height="1" fill="#e15759"/>
<text x="256" y="756" text-anchor="middle" fill="#d1d5db" font-size="30" font-family="Arial, sans-serif">memory</text>
<rect x="343" y="640" width="9" height="34" fill="#4e79a7"/>
<rect x="358" y="640" width="9" height="34" fill="#6ea6d8"/>
<rect x="373" y="640" width="9" height="34" fill="#9fc5e8"/>
<rect x="388" y="640" width="9" height="34" fill="#cfe2f3"/>
<rect x="403" y="628" width="9" height="46" fill="#59a14f"/>
<rect x="418" y="627" width="9" height="47" fill="#7bc96f"/>
<rect x="433" y="625" width="9" height="49" fill="#a8d08d"/>
<rect x="448" y="626" width="9" height="48" fill="#c6e0b4"/>
<rect x="463" y="673" width="9" height="1" fill="#e15759"/>
<text x="408" y="756" text-anchor="middle" fill="#d1d5db" font-size="30" font-family="Arial, sans-serif">file</text>
<rect x="495" y="672" width="9" height="2" fill="#4e79a7"/>
<rect x="510" y="672" width="9" height="2" fill="#6ea6d8"/>
<rect x="525" y="672" width="9" height="2" fill="#9fc5e8"/>
<rect x="540" y="672" width="9" height="2" fill="#cfe2f3"/>
<rect x="555" y="670" width="9" height="4" fill="#59a14f"/>
<rect x="570" y="670" width="9" height="4" fill="#7bc96f"/>
<rect x="585" y="670" width="9" height="4" fill="#a8d08d"/>
<rect x="600" y="670" width="9" height="4" fill="#c6e0b4"/>
<rect x="615" y="672" width="9" height="2" fill="#e15759"/>
<text x="560" y="756" text-anchor="middle" fill="#d1d5db" font-size="30" font-family="Arial, sans-serif">sqlite</text>
<rect x="647" y="645" width="9" height="29" fill="#4e79a7"/>
<rect x="662" y="644" width="9" height="30" fill="#6ea6d8"/>
<rect x="677" y="645" width="9" height="29" fill="#9fc5e8"/>
<rect x="692" y="645" width="9" height="29" fill="#cfe2f3"/>
<rect x="707" y="503" width="9" height="171" fill="#59a14f"/>
<rect x="722" y="493" width="9" height="181" fill="#7bc96f"/>
<rect x="737" y="473" width="9" height="201" fill="#a8d08d"/>
<rect x="752" y="489" width="9" height="185" fill="#c6e0b4"/>
<rect x="767" y="647" width="9" height="27" fill="#e15759"/>
<text x="712" y="756" text-anchor="middle" fill="#d1d5db" font-size="30" font-family="Arial, sans-serif">postgres</text>
<rect x="799" y="650" width="9" height="24" fill="#4e79a7"/>
<rect x="814" y="650" width="9" height="24" fill="#6ea6d8"/>
<rect x="829" y="650" width="9" height="24" fill="#9fc5e8"/>
<rect x="844" y="650" width="9" height="24" fill="#cfe2f3"/>
<rect x="859" y="649" width="9" height="25" fill="#59a14f"/>
<rect x="874" y="650" width="9" height="24" fill="#7bc96f"/>
<rect x="889" y="650" width="9" height="24" fill="#a8d08d"/>
<rect x="904" y="650" width="9" height="24" fill="#c6e0b4"/>
<rect x="919" y="650" width="9" height="24" fill="#e15759"/>
<text x="864" y="756" text-anchor="middle" fill="#d1d5db" font-size="30" font-family="Arial, sans-serif">redis</text>
<rect x="951" y="651" width="9" height="23" fill="#4e79a7"/>
<rect x="966" y="651" width="9" height="23" fill="#6ea6d8"/>
<rect x="981" y="650" width="9" height="24" fill="#9fc5e8"/>
<rect x="996" y="650" width="9" height="24" fill="#cfe2f3"/>
<rect x="1011" y="649" width="9" height="25" fill="#59a14f"/>
<rect x="1026" y="649" width="9" height="25" fill="#7bc96f"/>
<rect x="1041" y="649" width="9" height="25" fill="#a8d08d"/>
<rect x="1056" y="649" width="9" height="25" fill="#c6e0b4"/>
<rect x="1071" y="650" width="9" height="24" fill="#e15759"/>
<text x="1016" y="756" text-anchor="middle" fill="#d1d5db" font-size="30" font-family="Arial, sans-serif">memcached</text>
<rect x="1103" y="642" width="9" height="32" fill="#4e79a7"/>
<rect x="1118" y="643" width="9" height="31" fill="#6ea6d8"/>
<rect x="1133" y="641" width="9" height="33" fill="#9fc5e8"/>
<rect x="1148" y="640" width="9" height="34" fill="#cfe2f3"/>
<rect x="1163" y="642" width="9" height="32" fill="#59a14f"/>
<rect x="1178" y="643" width="9" height="31" fill="#7bc96f"/>
<rect x="1193" y="643" width="9" height="31" fill="#a8d08d"/>
<rect x="1208" y="641" width="9" height="33" fill="#c6e0b4"/>
<rect x="1223" y="642" width="9" height="32" fill="#e15759"/>
<text x="1168" y="756" text-anchor="middle" fill="#d1d5db" font-size="30" font-family="Arial, sans-serif">nats</text>
<rect x="1255" y="646" width="9" height="28" fill="#4e79a7"/>
<rect x="1270" y="646" width="9" height="28" fill="#6ea6d8"/>
<rect x="1285" y="647" width="9" height="27" fill="#9fc5e8"/>
<rect x="1300" y="646" width="9" height="28" fill="#cfe2f3"/>
<rect x="1315" y="645" width="9" height="29" fill="#59a14f"/>
<rect x="1330" y="645" width="9" height="29" fill="#7bc96f"/>
<rect x="1345" y="646" width="9" height="28" fill="#a8d08d"/>
<rect x="1360" y="646" width="9" height="28" fill="#c6e0b4"/>
<rect x="1375" y="645" width="9" height="29" fill="#e15759"/>
<text x="1320" y="756" text-anchor="middle" fill="#d1d5db" font-size="30" font-family="Arial, sans-serif">nats_bucket_ttl</text>
</svg>
