<?xml version="1.0" encoding="UTF-8"?>
<svg xmlns="http://www.w3.org/2000/svg" width="1600" height="690" viewBox="0 0 1600 690">
<rect width="100%" height="100%" fill="#111827"/>
<text x="800" y="44" text-anchor="middle" fill="#f9fafb" font-size="34" font-family="Arial, sans-serif">Cache Benchmark Allocated Bytes (B/op)</text>
<text x="800" y="84" text-anchor="middle" fill="#9ca3af" font-size="30" font-family="Arial, sans-serif">Grouped by operation, linear y-scale, lower is better</text>
<line x1="180" y1="560" x2="1400" y2="560" stroke="#374151" stroke-width="1"/>
<text x="170" y="570" text-anchor="end" fill="#d1d5db" font-size="30" font-family="Arial, sans-serif">0</text>
<line x1="180" y1="466" x2="1400" y2="466" stroke="#374151" stroke-width="1"/>
<text x="170" y="476" text-anchor="end" fill="#d1d5db" font-size="30" font-family="Arial, sans-serif">632</text>
<line x1="180" y1="372" x2="1400" y2="372" stroke="#374151" stroke-width="1"/>
<text x="170" y="382" text-anchor="end" fill="#d1d5db" font-size="30" font-family="Arial, sans-serif">1265</text>
<line x1="180" y1="278" x2="1400" y2="278" stroke="#374151" stroke-width="1"/>
<text x="170" y="288" text-anchor="end" fill="#d1d5db" font-size="30" font-family="Arial, sans-serif">1898</text>
<line x1="180" y1="184" x2="1400" y2="184" stroke="#374151" stroke-width="1"/>
<text x="170" y="194" text-anchor="end" fill="#d1d5db" font-size="30" font-family="Arial, sans-serif">2531</text>
<line x1="180" y1="90" x2="1400" y2="90" stroke="#374151" stroke-width="1"/>
<text x="170" y="100" text-anchor="end" fill="#d1d5db" font-size="30" font-family="Arial, sans-serif">3164</text>
<line x1="180" y1="560" x2="1400" y2="560" stroke="#e5e7eb" stroke-width="2"/>
<line x1="180" y1="560" x2="180" y2="90" stroke="#e5e7eb" stroke-width="2"/>
<rect x="192" y="560" width="7" height="1" fill="#4e79a7"/>
<rect x="205" y="560" width="7" height="1" fill="#6ea6d8"/>
<rect x="218" y="536" width="7" height="24" fill="#9fc5e8"/>
<rect x="231" y="520" width="7" height="40" fill="#cfe2f3"/>
<rect x="244" y="557" width="7" height="3" fill="#59a14f"/>
<rect x="257" y="555" width="7" height="5" fill="#7bc96f"/>
<rect x="270" y="552" width="7" height="8" fill="#a8d08d"/>
<rect x="283" y="546" width="7" height="14" fill="#c6e0b4"/>
<rect x="296" y="560" width="7" height="0" fill="#e15759"/>
<text x="247" y="642" text-anchor="middle" fill="#d1d5db" font-size="30" font-family="Arial, sans-serif">memory</text>
<rect x="327" y="360" width="7" height="200" fill="#4e79a7"/>
<rect x="340" y="360" width="7" height="200" fill="#6ea6d8"/>
<rect x="353" y="336" width="7" height="224" fill="#9fc5e8"/>
<rect x="366" y="323" width="7" height="237" fill="#cfe2f3"/>
<rect x="379" y="353" width="7" height="207" fill="#59a14f"/>
<rect x="392" y="352" width="7" height="208" fill="#7bc96f"/>
<rect x="405" y="349" width="7" height="211" fill="#a8d08d"/>
<rect x="418" y="345" width="7" height="215" fill="#c6e0b4"/>
<rect x="431" y="451" width="7" height="109" fill="#e15759"/>
<text x="382" y="642" text-anchor="middle" fill="#d1d5db" font-size="30" font-family="Arial, sans-serif">file</text>
<rect x="462" y="348" width="7" height="212" fill="#4e79a7"/>
<rect x="475" y="348" width="7" height="212" fill="#6ea6d8"/>
<rect x="488" y="324" width="7" height="236" fill="#9fc5e8"/>
<rect x="501" y="303" width="7" height="257" fill="#cfe2f3"/>
<rect x="514" y="372" width="7" height="188" fill="#59a14f"/>
<rect x="527" y="371" width="7" height="189" fill="#7bc96f"/>
<rect x="540" y="368" width="7" height="192" fill="#a8d08d"/>
<rect x="553" y="364" width="7" height="196" fill="#c6e0b4"/>
<rect x="566" y="416" width="7" height="144" fill="#e15759"/>
<text x="517" y="642" text-anchor="middle" fill="#d1d5db" font-size="30" font-family="Arial, sans-serif">sqlite</text>
<rect x="597" y="402" width="7" height="158" fill="#4e79a7"/>
<rect x="610" y="402" width="7" height="158" fill="#6ea6d8"/>
<rect x="623" y="379" width="7" height="181" fill="#9fc5e8"/>
<rect x="636" y="359" width="7" height="201" fill="#cfe2f3"/>
<rect x="649" y="482" width="7" height="78" fill="#59a14f"/>
<rect x="662" y="481" width="7" height="79" fill="#7bc96f"/>
<rect x="675" y="478" width="7" height="82" fill="#a8d08d"/>
<rect x="688" y="475" width="7" height="85" fill="#c6e0b4"/>
<rect x="701" y="526" width="7" height="34" fill="#e15759"/>
<text x="652" y="642" text-anchor="middle" fill="#d1d5db" font-size="30" font-family="Arial, sans-serif">postgres</text>
<rect x="732" y="450" width="7" height="110" fill="#4e79a7"/>
<rect x="745" y="450" width="7" height="110" fill="#6ea6d8"/>
<rect x="758" y="426" width="7" height="134" fill="#9fc5e8"/>
<rect x="771" y="408" width="7" height="152" fill="#cfe2f3"/>
<rect x="784" y="488" width="7" height="72" fill="#59a14f"/>
<rect x="797" y="487" width="7" height="73" fill="#7bc96f"/>
<rect x="810" y="484" width="7" height="76" fill="#a8d08d"/>
<rect x="823" y="481" width="7" height="79" fill="#c6e0b4"/>
<rect x="836" y="531" width="7" height="29" fill="#e15759"/>
<text x="787" y="642" text-anchor="middle" fill="#d1d5db" font-size="30" font-family="Arial, sans-serif">mysql</text>
<rect x="867" y="531" width="7" height="29" fill="#4e79a7"/>
<rect x="880" y="531" width="7" height="29" fill="#6ea6d8"/>
<rect x="893" y="506" width="7" height="54" fill="#9fc5e8"/>
<rect x="906" y="489" width="7" height="71" fill="#cfe2f3"/>
<rect x="919" y="520" width="7" height="40" fill="#59a14f"/>
<rect x="932" y="518" width="7" height="42" fill="#7bc96f"/>
<rect x="945" y="515" width="7" height="45" fill="#a8d08d"/>
<rect x="958" y="513" width="7" height="47" fill="#c6e0b4"/>
<rect x="971" y="531" width="7" height="29" fill="#e15759"/>
<text x="922" y="642" text-anchor="middle" fill="#d1d5db" font-size="30" font-family="Arial, sans-serif">redis</text>
<rect x="1002" y="532" width="7" height="28" fill="#4e79a7"/>
<rect x="1015" y="532" width="7" height="28" fill="#6ea6d8"/>
<rect x="1028" y="507" width="7" height="53" fill="#9fc5e8"/>
<rect x="1041" y="488" width="7" height="72" fill="#cfe2f3"/>
<rect x="1054" y="546" width="7" height="14" fill="#59a14f"/>
<rect x="1067" y="546" width="7" height="14" fill="#7bc96f"/>
<rect x="1080" y="544" width="7" height="16" fill="#a8d08d"/>
<rect x="1093" y="539" width="7" height="21" fill="#c6e0b4"/>
<rect x="1106" y="546" width="7" height="14" fill="#e15759"/>
<text x="1057" y="642" text-anchor="middle" fill="#d1d5db" font-size="30" font-family="Arial, sans-serif">memcached</text>
<rect x="1137" y="178" width="7" height="382" fill="#4e79a7"/>
<rect x="1150" y="179" width="7" height="381" fill="#6ea6d8"/>
<rect x="1163" y="155" width="7" height="405" fill="#9fc5e8"/>
<rect x="1176" y="133" width="7" height="427" fill="#cfe2f3"/>
<rect x="1189" y="395" width="7" height="165" fill="#59a14f"/>
<rect x="1202" y="395" width="7" height="165" fill="#7bc96f"/>
<rect x="1215" y="393" width="7" height="167" fill="#a8d08d"/>
<rect x="1228" y="384" width="7" height="176" fill="#c6e0b4"/>
<rect x="1241" y="377" width="7" height="183" fill="#e15759"/>
<text x="1192" y="642" text-anchor="middle" fill="#d1d5db" font-size="30" font-family="Arial, sans-serif">nats</text>
<rect x="1272" y="181" width="7" height="379" fill="#4e79a7"/>
<rect x="1285" y="181" width="7" height="379" fill="#6ea6d8"/>
<rect x="1298" y="157" width="7" height="403" fill="#9fc5e8"/>
<rect x="1311" y="136" width="7" height="424" fill="#cfe2f3"/>
<rect x="1324" y="398" width="7" height="162" fill="#59a14f"/>
<rect x="1337" y="398" width="7" height="162" fill="#7bc96f"/>
<rect x="1350" y="395" width="7" height="165" fill="#a8d08d"/>
<rect x="1363" y="388" width="7" height="172" fill="#c6e0b4"/>
<rect x="1376" y="377" width="7" height="183" fill="#e15759"/>
<text x="1327" y="642" text-anchor="middle" fill="#d1d5db" font-size="30" font-family="Arial, sans-serif">nats_bucket_ttl</text>
<rect x="1420" y="81" width="20" height="20" fill="#4e79a7"/>
<text x="1450" y="96" fill="#f3f4f6" font-size="28" font-family="Arial, sans-serif">GetBytes</text>
<rect x="1420" y="113" width="20" height="20" fill="#6ea6d8"/>
<text x="1450" y="128" fill="#f3f4f6" font-size="28" font-family="Arial, sans-serif">GetString</text>
<rect x="1420" y="145" width="20" height="20" fill="#9fc5e8"/>
<text x="1450" y="160" fill="#f3f4f6" font-size="28" font-family="Arial, sans-serif">Get[string]</text>
<rect x="1420" y="177" width="20" height="20" fill="#cfe2f3"/>
<text x="1450" y="192" fill="#f3f4f6" font-size="28" font-family="Arial, sans-serif">Get[T]</text>
<rect x="1420" y="209" width="20" height="20" fill="#59a14f"/>
<text x="1450" y="224" fill="#f3f4f6" font-size="28" font-family="Arial, sans-serif">SetBytes</text>
<rect x="1420" y="241" width="20" height="20" fill="#7bc96f"/>
<text x="1450" y="256" fill="#f3f4f6" font-size="28" font-family="Arial, sans-serif">SetString</text>
<rect x="1420" y="273" width="20" height="20" fill="#a8d08d"/>
<text x="1450" y="288" fill="#f3f4f6" font-size="28" font-family="Arial, sans-serif">Set[string]</text>
<rect x="1420" y="305" width="20" height="20" fill="#c6e0b4"/>
<text x="1450" y="320" fill="#f3f4f6" font-size="28" font-family="Arial, sans-serif">Set[T]</text>
<rect x="1420" y="337" width="20" height="20" fill="#e15759"/>
<text x="1450" y="352" fill="#f3f4f6" font-size="28" font-family="Arial, sans-serif">Delete</text>
</svg>
