<?xml version="1.0" encoding="UTF-8"?>
<svg xmlns="http://www.w3.org/2000/svg" width="1600" height="690" viewBox="0 0 1600 690">
<rect width="100%" height="100%" fill="#111827"/>
<text x="800" y="44" text-anchor="middle" fill="#f9fafb" font-size="34" font-family="Arial, sans-serif">Cache Benchmark Allocations (allocs/op)</text>
<text x="800" y="84" text-anchor="middle" fill="#9ca3af" font-size="36" font-family="Arial, sans-serif">Grouped by operation (Get, Set, Delete), linear y-scale, lower is better</text>
<line x1="180" y1="560" x2="1450" y2="560" stroke="#374151" stroke-width="1"/>
<text x="170" y="570" text-anchor="end" fill="#d1d5db" font-size="30" font-family="Arial, sans-serif">0</text>
<line x1="180" y1="466" x2="1450" y2="466" stroke="#374151" stroke-width="1"/>
<text x="170" y="476" text-anchor="end" fill="#d1d5db" font-size="30" font-family="Arial, sans-serif">8</text>
<line x1="180" y1="372" x2="1450" y2="372" stroke="#374151" stroke-width="1"/>
<text x="170" y="382" text-anchor="end" fill="#d1d5db" font-size="30" font-family="Arial, sans-serif">17</text>
<line x1="180" y1="278" x2="1450" y2="278" stroke="#374151" stroke-width="1"/>
<text x="170" y="288" text-anchor="end" fill="#d1d5db" font-size="30" font-family="Arial, sans-serif">26</text>
<line x1="180" y1="184" x2="1450" y2="184" stroke="#374151" stroke-width="1"/>
<text x="170" y="194" text-anchor="end" fill="#d1d5db" font-size="30" font-family="Arial, sans-serif">35</text>
<line x1="180" y1="90" x2="1450" y2="90" stroke="#374151" stroke-width="1"/>
<text x="170" y="100" text-anchor="end" fill="#d1d5db" font-size="30" font-family="Arial, sans-serif">44</text>
<line x1="180" y1="560" x2="1450" y2="560" stroke="#e5e7eb" stroke-width="2"/>
<line x1="180" y1="560" x2="180" y2="90" stroke="#e5e7eb" stroke-width="2"/>
<rect x="205" y="550" width="26" height="10" fill="#4e79a7"/>
<rect x="237" y="528" width="26" height="32" fill="#59a14f"/>
<rect x="269" y="560" width="26" height="0" fill="#e15759"/>
<text x="250" y="642" text-anchor="middle" fill="#d1d5db" font-size="30" font-family="Arial, sans-serif">memory</text>
<rect x="346" y="464" width="26" height="96" fill="#4e79a7"/>
<rect x="378" y="400" width="26" height="160" fill="#59a14f"/>
<rect x="410" y="486" width="26" height="74" fill="#e15759"/>
<text x="391" y="642" text-anchor="middle" fill="#d1d5db" font-size="30" font-family="Arial, sans-serif">file</text>
<rect x="487" y="133" width="26" height="427" fill="#4e79a7"/>
<rect x="519" y="176" width="26" height="384" fill="#59a14f"/>
<rect x="551" y="293" width="26" height="267" fill="#e15759"/>
<text x="532" y="642" text-anchor="middle" fill="#d1d5db" font-size="30" font-family="Arial, sans-serif">sqlite</text>
<rect x="628" y="208" width="26" height="352" fill="#4e79a7"/>
<rect x="660" y="304" width="26" height="256" fill="#59a14f"/>
<rect x="692" y="443" width="26" height="117" fill="#e15759"/>
<text x="673" y="642" text-anchor="middle" fill="#d1d5db" font-size="30" font-family="Arial, sans-serif">postgres</text>
<rect x="769" y="283" width="26" height="277" fill="#4e79a7"/>
<rect x="801" y="304" width="26" height="256" fill="#59a14f"/>
<rect x="833" y="400" width="26" height="160" fill="#e15759"/>
<text x="814" y="642" text-anchor="middle" fill="#d1d5db" font-size="30" font-family="Arial, sans-serif">mysql</text>
<rect x="910" y="475" width="26" height="85" fill="#4e79a7"/>
<rect x="942" y="454" width="26" height="106" fill="#59a14f"/>
<rect x="974" y="475" width="26" height="85" fill="#e15759"/>
<text x="955" y="642" text-anchor="middle" fill="#d1d5db" font-size="30" font-family="Arial, sans-serif">redis</text>
<rect x="1051" y="464" width="26" height="96" fill="#4e79a7"/>
<rect x="1083" y="496" width="26" height="64" fill="#59a14f"/>
<rect x="1115" y="518" width="26" height="42" fill="#e15759"/>
<text x="1096" y="642" text-anchor="middle" fill="#d1d5db" font-size="30" font-family="Arial, sans-serif">memcached</text>
<rect x="1192" y="229" width="26" height="331" fill="#4e79a7"/>
<rect x="1224" y="315" width="26" height="245" fill="#59a14f"/>
<rect x="1256" y="293" width="26" height="267" fill="#e15759"/>
<text x="1237" y="642" text-anchor="middle" fill="#d1d5db" font-size="30" font-family="Arial, sans-serif">nats</text>
<rect x="1333" y="229" width="26" height="331" fill="#4e79a7"/>
<rect x="1365" y="315" width="26" height="245" fill="#59a14f"/>
<rect x="1397" y="293" width="26" height="267" fill="#e15759"/>
<text x="1378" y="642" text-anchor="middle" fill="#d1d5db" font-size="30" font-family="Arial, sans-serif">nats_bucket_ttl</text>
<rect x="1470" y="81" width="20" height="20" fill="#4e79a7"/>
<text x="1500" y="96" fill="#f3f4f6" font-size="28" font-family="Arial, sans-serif">Get</text>
<rect x="1470" y="113" width="20" height="20" fill="#59a14f"/>
<text x="1500" y="128" fill="#f3f4f6" font-size="28" font-family="Arial, sans-serif">Set</text>
<rect x="1470" y="145" width="20" height="20" fill="#e15759"/>
<text x="1500" y="160" fill="#f3f4f6" font-size="28" font-family="Arial, sans-serif">Delete</text>
</svg>
