<?xml version="1.0" encoding="UTF-8"?>
<svg xmlns="http://www.w3.org/2000/svg" width="1600" height="690" viewBox="0 0 1600 690">
<rect width="100%" height="100%" fill="#111827"/>
<text x="800" y="44" text-anchor="middle" fill="#f9fafb" font-size="34" font-family="Arial, sans-serif">Cache Benchmark Allocated Bytes (B/op)</text>
<text x="800" y="84" text-anchor="middle" fill="#9ca3af" font-size="36" font-family="Arial, sans-serif">Grouped by operation (Get, Set, Delete), linear y-scale, lower is better</text>
<line x1="180" y1="560" x2="1450" y2="560" stroke="#374151" stroke-width="1"/>
<text x="170" y="570" text-anchor="end" fill="#d1d5db" font-size="30" font-family="Arial, sans-serif">0</text>
<line x1="180" y1="466" x2="1450" y2="466" stroke="#374151" stroke-width="1"/>
<text x="170" y="476" text-anchor="end" fill="#d1d5db" font-size="30" font-family="Arial, sans-serif">453</text>
<line x1="180" y1="372" x2="1450" y2="372" stroke="#374151" stroke-width="1"/>
<text x="170" y="382" text-anchor="end" fill="#d1d5db" font-size="30" font-family="Arial, sans-serif">906</text>
<line x1="180" y1="278" x2="1450" y2="278" stroke="#374151" stroke-width="1"/>
<text x="170" y="288" text-anchor="end" fill="#d1d5db" font-size="30" font-family="Arial, sans-serif">1359</text>
<line x1="180" y1="184" x2="1450" y2="184" stroke="#374151" stroke-width="1"/>
<text x="170" y="194" text-anchor="end" fill="#d1d5db" font-size="30" font-family="Arial, sans-serif">1812</text>
<line x1="180" y1="90" x2="1450" y2="90" stroke="#374151" stroke-width="1"/>
<text x="170" y="100" text-anchor="end" fill="#d1d5db" font-size="30" font-family="Arial, sans-serif">2266</text>
<line x1="180" y1="560" x2="1450" y2="560" stroke="#e5e7eb" stroke-width="2"/>
<line x1="180" y1="560" x2="180" y2="90" stroke="#e5e7eb" stroke-width="2"/>
<rect x="205" y="560" width="26" height="1" fill="#4e79a7"/>
<rect x="237" y="555" width="26" height="5" fill="#59a14f"/>
<rect x="269" y="560" width="26" height="0" fill="#e15759"/>
<text x="250" y="642" text-anchor="middle" fill="#d1d5db" font-size="30" font-family="Arial, sans-serif">memory</text>
<rect x="346" y="280" width="26" height="280" fill="#4e79a7"/>
<rect x="378" y="270" width="26" height="290" fill="#59a14f"/>
<rect x="410" y="408" width="26" height="152" fill="#e15759"/>
<text x="391" y="642" text-anchor="middle" fill="#d1d5db" font-size="30" font-family="Arial, sans-serif">file</text>
<rect x="487" y="257" width="26" height="303" fill="#4e79a7"/>
<rect x="519" y="256" width="26" height="304" fill="#59a14f"/>
<rect x="551" y="341" width="26" height="219" fill="#e15759"/>
<text x="532" y="642" text-anchor="middle" fill="#d1d5db" font-size="30" font-family="Arial, sans-serif">sqlite</text>
<rect x="628" y="336" width="26" height="224" fill="#4e79a7"/>
<rect x="660" y="408" width="26" height="152" fill="#59a14f"/>
<rect x="692" y="497" width="26" height="63" fill="#e15759"/>
<text x="673" y="642" text-anchor="middle" fill="#d1d5db" font-size="30" font-family="Arial, sans-serif">postgres</text>
<rect x="769" y="380" width="26" height="180" fill="#4e79a7"/>
<rect x="801" y="358" width="26" height="202" fill="#59a14f"/>
<rect x="833" y="487" width="26" height="73" fill="#e15759"/>
<text x="814" y="642" text-anchor="middle" fill="#d1d5db" font-size="30" font-family="Arial, sans-serif">mysql</text>
<rect x="910" y="519" width="26" height="41" fill="#4e79a7"/>
<rect x="942" y="504" width="26" height="56" fill="#59a14f"/>
<rect x="974" y="519" width="26" height="41" fill="#e15759"/>
<text x="955" y="642" text-anchor="middle" fill="#d1d5db" font-size="30" font-family="Arial, sans-serif">redis</text>
<rect x="1051" y="521" width="26" height="39" fill="#4e79a7"/>
<rect x="1083" y="541" width="26" height="19" fill="#59a14f"/>
<rect x="1115" y="541" width="26" height="19" fill="#e15759"/>
<text x="1096" y="642" text-anchor="middle" fill="#d1d5db" font-size="30" font-family="Arial, sans-serif">memcached</text>
<rect x="1192" y="133" width="26" height="427" fill="#4e79a7"/>
<rect x="1224" y="329" width="26" height="231" fill="#59a14f"/>
<rect x="1256" y="305" width="26" height="255" fill="#e15759"/>
<text x="1237" y="642" text-anchor="middle" fill="#d1d5db" font-size="30" font-family="Arial, sans-serif">nats</text>
<rect x="1333" y="133" width="26" height="427" fill="#4e79a7"/>
<rect x="1365" y="333" width="26" height="227" fill="#59a14f"/>
<rect x="1397" y="305" width="26" height="255" fill="#e15759"/>
<text x="1378" y="642" text-anchor="middle" fill="#d1d5db" font-size="30" font-family="Arial, sans-serif">nats_bucket_ttl</text>
<rect x="1470" y="81" width="20" height="20" fill="#4e79a7"/>
<text x="1500" y="96" fill="#f3f4f6" font-size="28" font-family="Arial, sans-serif">Get</text>
<rect x="1470" y="113" width="20" height="20" fill="#59a14f"/>
<text x="1500" y="128" fill="#f3f4f6" font-size="28" font-family="Arial, sans-serif">Set</text>
<rect x="1470" y="145" width="20" height="20" fill="#e15759"/>
<text x="1500" y="160" fill="#f3f4f6" font-size="28" font-family="Arial, sans-serif">Delete</text>
</svg>
