<?xml version="1.0" encoding="UTF-8"?>
<svg xmlns="http://www.w3.org/2000/svg" width="1600" height="825" viewBox="0 0 1600 825">
<rect width="100%" height="100%" fill="#111827"/>
<text x="800" y="44" text-anchor="middle" fill="#f9fafb" font-size="34" font-family="Arial, sans-serif">Cache Benchmark Iterations (N)</text>
<text x="800" y="96" text-anchor="middle" fill="#9ca3af" font-size="30" font-family="Arial, sans-serif">Linear split view (grouped bars): top outlier, bottom remaining drivers, higher is better</text>
<rect x="1420" y="116" width="20" height="20" fill="#4e79a7"/>
<text x="1450" y="131" fill="#f3f4f6" font-size="28" font-family="Arial, sans-serif">GetBytes</text>
<rect x="1420" y="148" width="20" height="20" fill="#6ea6d8"/>
<text x="1450" y="163" fill="#f3f4f6" font-size="28" font-family="Arial, sans-serif">GetString</text>
<rect x="1420" y="180" width="20" height="20" fill="#9fc5e8"/>
<text x="1450" y="195" fill="#f3f4f6" font-size="28" font-family="Arial, sans-serif">Get[string]</text>
<rect x="1420" y="212" width="20" height="20" fill="#cfe2f3"/>
<text x="1450" y="227" fill="#f3f4f6" font-size="28" font-family="Arial, sans-serif">Get[T]</text>
<rect x="1420" y="244" width="20" height="20" fill="#59a14f"/>
<text x="1450" y="259" fill="#f3f4f6" font-size="28" font-family="Arial, sans-serif">SetBytes</text>
<rect x="1420" y="276" width="20" height="20" fill="#7bc96f"/>
<text x="1450" y="291" fill="#f3f4f6" font-size="28" font-family="Arial, sans-serif">SetString</text>
<rect x="1420" y="308" width="20" height="20" fill="#a8d08d"/>
<text x="1450" y="323" fill="#f3f4f6" font-size="28" font-family="Arial, sans-serif">Set[string]</text>
<rect x="1420" y="340" width="20" height="20" fill="#c6e0b4"/>
<text x="1450" y="355" fill="#f3f4f6" font-size="28" font-family="Arial, sans-serif">Set[T]</text>
<rect x="1420" y="372" width="20" height="20" fill="#e15759"/>
<text x="1450" y="387" fill="#f3f4f6" font-size="28" font-family="Arial, sans-serif">Delete</text>
<text x="180" y="138" fill="#f3f4f6" font-size="22" font-family="Arial, sans-serif">Outlier: memory</text>
<line x1="180" y1="372" x2="1400" y2="372" stroke="#374151" stroke-width="1"/>
<text x="170" y="382" text-anchor="end" fill="#d1d5db" font-size="30" font-family="Arial, sans-serif">0</text>
<line x1="180" y1="328" x2="1400" y2="328" stroke="#374151" stroke-width="1"/>
<text x="170" y="338" text-anchor="end" fill="#d1d5db" font-size="30" font-family="Arial, sans-serif">6766910</text>
<line x1="180" y1="284" x2="1400" y2="284" stroke="#374151" stroke-width="1"/>
<text x="170" y="294" text-anchor="end" fill="#d1d5db" font-size="30" font-family="Arial, sans-serif">13533820</text>
<line x1="180" y1="239" x2="1400" y2="239" stroke="#374151" stroke-width="1"/>
<text x="170" y="249" text-anchor="end" fill="#d1d5db" font-size="30" font-family="Arial, sans-serif">20300730</text>
<line x1="180" y1="195" x2="1400" y2="195" stroke="#374151" stroke-width="1"/>
<text x="170" y="205" text-anchor="end" fill="#d1d5db" font-size="30" font-family="Arial, sans-serif">27067640</text>
<line x1="180" y1="150" x2="1400" y2="150" stroke="#374151" stroke-width="1"/>
<text x="170" y="160" text-anchor="end" fill="#d1d5db" font-size="30" font-family="Arial, sans-serif">33834550</text>
<line x1="180" y1="372" x2="1400" y2="372" stroke="#e5e7eb" stroke-width="2"/>
<line x1="180" y1="372" x2="180" y2="150" stroke="#e5e7eb" stroke-width="2"/>
<rect x="237" y="260" width="74" height="112" fill="#4e79a7"/>
<rect x="366" y="294" width="74" height="78" fill="#6ea6d8"/>
<rect x="495" y="317" width="74" height="55" fill="#9fc5e8"/>
<rect x="624" y="350" width="74" height="22" fill="#cfe2f3"/>
<rect x="753" y="294" width="74" height="78" fill="#59a14f"/>
<rect x="882" y="312" width="74" height="60" fill="#7bc96f"/>
<rect x="1011" y="318" width="74" height="54" fill="#a8d08d"/>
<rect x="1140" y="329" width="74" height="43" fill="#c6e0b4"/>
<rect x="1269" y="171" width="74" height="201" fill="#e15759"/>
<text x="790" y="454" text-anchor="middle" fill="#d1d5db" font-size="30" font-family="Arial, sans-serif">memory</text>
<text x="180" y="440" fill="#f3f4f6" font-size="22" font-family="Arial, sans-serif">Remaining drivers</text>
<line x1="180" y1="674" x2="1400" y2="674" stroke="#374151" stroke-width="1"/>
<text x="170" y="684" text-anchor="end" fill="#d1d5db" font-size="30" font-family="Arial, sans-serif">0</text>
<line x1="180" y1="630" x2="1400" y2="630" stroke="#374151" stroke-width="1"/>
<text x="170" y="640" text-anchor="end" fill="#d1d5db" font-size="30" font-family="Arial, sans-serif">112099</text>
<line x1="180" y1="586" x2="1400" y2="586" stroke="#374151" stroke-width="1"/>
<text x="170" y="596" text-anchor="end" fill="#d1d5db" font-size="30" font-family="Arial, sans-serif">224199</text>
<line x1="180" y1="541" x2="1400" y2="541" stroke="#374151" stroke-width="1"/>
<text x="170" y="551" text-anchor="end" fill="#d1d5db" font-size="30" font-family="Arial, sans-serif">336299</text>
<line x1="180" y1="497" x2="1400" y2="497" stroke="#374151" stroke-width="1"/>
<text x="170" y="507" text-anchor="end" fill="#d1d5db" font-size="30" font-family="Arial, sans-serif">448399</text>
<line x1="180" y1="452" x2="1400" y2="452" stroke="#374151" stroke-width="1"/>
<text x="170" y="462" text-anchor="end" fill="#d1d5db" font-size="30" font-family="Arial, sans-serif">560499</text>
<line x1="180" y1="674" x2="1400" y2="674" stroke="#e5e7eb" stroke-width="2"/>
<line x1="180" y1="674" x2="180" y2="452" stroke="#e5e7eb" stroke-width="2"/>
<rect x="191" y="669" width="9" height="5" fill="#4e79a7"/>
<rect x="206" y="670" width="9" height="4" fill="#6ea6d8"/>
<rect x="221" y="671" width="9" height="3" fill="#9fc5e8"/>
<rect x="236" y="671" width="9" height="3" fill="#cfe2f3"/>
<rect x="251" y="671" width="9" height="3" fill="#59a14f"/>
<rect x="266" y="671" width="9" height="3" fill="#7bc96f"/>
<rect x="281" y="671" width="9" height="3" fill="#a8d08d"/>
<rect x="296" y="671" width="9" height="3" fill="#c6e0b4"/>
<rect x="311" y="473" width="9" height="201" fill="#e15759"/>
<text x="256" y="756" text-anchor="middle" fill="#d1d5db" font-size="30" font-family="Arial, sans-serif">file</text>
<rect x="343" y="612" width="9" height="62" fill="#4e79a7"/>
<rect x="358" y="612" width="9" height="62" fill="#6ea6d8"/>
<rect x="373" y="612" width="9" height="62" fill="#9fc5e8"/>
<rect x="388" y="615" width="9" height="59" fill="#cfe2f3"/>
<rect x="403" y="635" width="9" height="39" fill="#59a14f"/>
<rect x="418" y="635" width="9" height="39" fill="#7bc96f"/>
<rect x="433" y="638" width="9" height="36" fill="#a8d08d"/>
<rect x="448" y="641" width="9" height="33" fill="#c6e0b4"/>
<rect x="463" y="608" width="9" height="66" fill="#e15759"/>
<text x="408" y="756" text-anchor="middle" fill="#d1d5db" font-size="30" font-family="Arial, sans-serif">sqlite</text>
<rect x="495" y="669" width="9" height="5" fill="#4e79a7"/>
<rect x="510" y="670" width="9" height="4" fill="#6ea6d8"/>
<rect x="525" y="669" width="9" height="5" fill="#9fc5e8"/>
<rect x="540" y="669" width="9" height="5" fill="#cfe2f3"/>
<rect x="555" y="673" width="9" height="1" fill="#59a14f"/>
<rect x="570" y="673" width="9" height="1" fill="#7bc96f"/>
<rect x="585" y="673" width="9" height="1" fill="#a8d08d"/>
<rect x="600" y="673" width="9" height="1" fill="#c6e0b4"/>
<rect x="615" y="668" width="9" height="6" fill="#e15759"/>
<text x="560" y="756" text-anchor="middle" fill="#d1d5db" font-size="30" font-family="Arial, sans-serif">postgres</text>
<rect x="647" y="669" width="9" height="5" fill="#4e79a7"/>
<rect x="662" y="669" width="9" height="5" fill="#6ea6d8"/>
<rect x="677" y="669" width="9" height="5" fill="#9fc5e8"/>
<rect x="692" y="669" width="9" height="5" fill="#cfe2f3"/>
<rect x="707" y="673" width="9" height="1" fill="#59a14f"/>
<rect x="722" y="673" width="9" height="1" fill="#7bc96f"/>
<rect x="737" y="673" width="9" height="1" fill="#a8d08d"/>
<rect x="752" y="673" width="9" height="1" fill="#c6e0b4"/>
<rect x="767" y="667" width="9" height="7" fill="#e15759"/>
<text x="712" y="756" text-anchor="middle" fill="#d1d5db" font-size="30" font-family="Arial, sans-serif">mysql</text>
<rect x="799" y="668" width="9" height="6" fill="#4e79a7"/>
<rect x="814" y="668" width="9" height="6" fill="#6ea6d8"/>
<rect x="829" y="668" width="9" height="6" fill="#9fc5e8"/>
<rect x="844" y="668" width="9" height="6" fill="#cfe2f3"/>
<rect x="859" y="668" width="9" height="6" fill="#59a14f"/>
<rect x="874" y="668" width="9" height="6" fill="#7bc96f"/>
<rect x="889" y="668" width="9" height="6" fill="#a8d08d"/>
<rect x="904" y="668" width="9" height="6" fill="#c6e0b4"/>
<rect x="919" y="668" width="9" height="6" fill="#e15759"/>
<text x="864" y="756" text-anchor="middle" fill="#d1d5db" font-size="30" font-family="Arial, sans-serif">redis</text>
<rect x="951" y="668" width="9" height="6" fill="#4e79a7"/>
<rect x="966" y="668" width="9" height="6" fill="#6ea6d8"/>
<rect x="981" y="668" width="9" height="6" fill="#9fc5e8"/>
<rect x="996" y="668" width="9" height="6" fill="#cfe2f3"/>
<rect x="1011" y="668" width="9" height="6" fill="#59a14f"/>
<rect x="1026" y="668" width="9" height="6" fill="#7bc96f"/>
<rect x="1041" y="668" width="9" height="6" fill="#a8d08d"/>
<rect x="1056" y="668" width="9" height="6" fill="#c6e0b4"/>
<rect x="1071" y="668" width="9" height="6" fill="#e15759"/>
<text x="1016" y="756" text-anchor="middle" fill="#d1d5db" font-size="30" font-family="Arial, sans-serif">memcached</text>
<rect x="1103" y="670" width="9" height="4" fill="#4e79a7"/>
<rect x="1118" y="669" width="9" height="5" fill="#6ea6d8"/>
<rect x="1133" y="670" width="9" height="4" fill="#9fc5e8"/>
<rect x="1148" y="671" width="9" height="3" fill="#cfe2f3"/>
<rect x="1163" y="669" width="9" height="5" fill="#59a14f"/>
<rect x="1178" y="669" width="9" height="5" fill="#7bc96f"/>
<rect x="1193" y="669" width="9" height="5" fill="#a8d08d"/>
<rect x="1208" y="670" width="9" height="4" fill="#c6e0b4"/>
<rect x="1223" y="670" width="9" height="4" fill="#e15759"/>
<text x="1168" y="756" text-anchor="middle" fill="#d1d5db" font-size="30" font-family="Arial, sans-serif">nats</text>
<rect x="1255" y="669" width="9" height="5" fill="#4e79a7"/>
<rect x="1270" y="669" width="9" height="5" fill="#6ea6d8"/>
<rect x="1285" y="669" width="9" height="5" fill="#9fc5e8"/>
<rect x="1300" y="669" width="9" height="5" fill="#cfe2f3"/>
<rect x="1315" y="669" width="9" height="5" fill="#59a14f"/>
<rect x="1330" y="669" width="9" height="5" fill="#7bc96f"/>
<rect x="1345" y="669" width="9" height="5" fill="#a8d08d"/>
<rect x="1360" y="669" width="9" height="5" fill="#c6e0b4"/>
<rect x="1375" y="669" width="9" height="5" fill="#e15759"/>
<text x="1320" y="756" text-anchor="middle" fill="#d1d5db" font-size="30" font-family="Arial, sans-serif">nats_bucket_ttl</text>
</svg>
