<?xml version="1.0" encoding="UTF-8"?>
<svg xmlns="http://www.w3.org/2000/svg" width="1600" height="825" viewBox="0 0 1600 825">
<rect width="100%" height="100%" fill="#111827"/>
<text x="800" y="44" text-anchor="middle" fill="#f9fafb" font-size="34" font-family="Arial, sans-serif">Cache Benchmark Latency (ns/op)</text>
<text x="800" y="96" text-anchor="middle" fill="#9ca3af" font-size="36" font-family="Arial, sans-serif">Linear split view (grouped bars): top outlier, bottom remaining drivers, lower is better</text>
<rect x="1470" y="116" width="20" height="20" fill="#4e79a7"/>
<text x="1500" y="131" fill="#f3f4f6" font-size="28" font-family="Arial, sans-serif">Get</text>
<rect x="1470" y="148" width="20" height="20" fill="#59a14f"/>
<text x="1500" y="163" fill="#f3f4f6" font-size="28" font-family="Arial, sans-serif">Set</text>
<rect x="1470" y="180" width="20" height="20" fill="#e15759"/>
<text x="1500" y="195" fill="#f3f4f6" font-size="28" font-family="Arial, sans-serif">Delete</text>
<text x="180" y="138" fill="#f3f4f6" font-size="22" font-family="Arial, sans-serif">Outlier: sql_mysql</text>
<line x1="180" y1="372" x2="1450" y2="372" stroke="#374151" stroke-width="1"/>
<text x="170" y="382" text-anchor="end" fill="#d1d5db" font-size="30" font-family="Arial, sans-serif">0</text>
<line x1="180" y1="328" x2="1450" y2="328" stroke="#374151" stroke-width="1"/>
<text x="170" y="338" text-anchor="end" fill="#d1d5db" font-size="30" font-family="Arial, sans-serif">291352</text>
<line x1="180" y1="284" x2="1450" y2="284" stroke="#374151" stroke-width="1"/>
<text x="170" y="294" text-anchor="end" fill="#d1d5db" font-size="30" font-family="Arial, sans-serif">582704</text>
<line x1="180" y1="239" x2="1450" y2="239" stroke="#374151" stroke-width="1"/>
<text x="170" y="249" text-anchor="end" fill="#d1d5db" font-size="30" font-family="Arial, sans-serif">874056</text>
<line x1="180" y1="195" x2="1450" y2="195" stroke="#374151" stroke-width="1"/>
<text x="170" y="205" text-anchor="end" fill="#d1d5db" font-size="30" font-family="Arial, sans-serif">1165408</text>
<line x1="180" y1="150" x2="1450" y2="150" stroke="#374151" stroke-width="1"/>
<text x="170" y="160" text-anchor="end" fill="#d1d5db" font-size="30" font-family="Arial, sans-serif">1456760</text>
<line x1="180" y1="372" x2="1450" y2="372" stroke="#e5e7eb" stroke-width="2"/>
<line x1="180" y1="372" x2="180" y2="150" stroke="#e5e7eb" stroke-width="2"/>
<rect x="405" y="347" width="235" height="25" fill="#4e79a7"/>
<rect x="697" y="171" width="235" height="201" fill="#59a14f"/>
<rect x="989" y="349" width="235" height="23" fill="#e15759"/>
<text x="815" y="454" text-anchor="middle" fill="#d1d5db" font-size="30" font-family="Arial, sans-serif">mysql</text>
<text x="180" y="440" fill="#f3f4f6" font-size="22" font-family="Arial, sans-serif">Remaining drivers</text>
<line x1="180" y1="674" x2="1450" y2="674" stroke="#374151" stroke-width="1"/>
<text x="170" y="684" text-anchor="end" fill="#d1d5db" font-size="30" font-family="Arial, sans-serif">0</text>
<line x1="180" y1="630" x2="1450" y2="630" stroke="#374151" stroke-width="1"/>
<text x="170" y="640" text-anchor="end" fill="#d1d5db" font-size="30" font-family="Arial, sans-serif">171724</text>
<line x1="180" y1="586" x2="1450" y2="586" stroke="#374151" stroke-width="1"/>
<text x="170" y="596" text-anchor="end" fill="#d1d5db" font-size="30" font-family="Arial, sans-serif">343449</text>
<line x1="180" y1="541" x2="1450" y2="541" stroke="#374151" stroke-width="1"/>
<text x="170" y="551" text-anchor="end" fill="#d1d5db" font-size="30" font-family="Arial, sans-serif">515174</text>
<line x1="180" y1="497" x2="1450" y2="497" stroke="#374151" stroke-width="1"/>
<text x="170" y="507" text-anchor="end" fill="#d1d5db" font-size="30" font-family="Arial, sans-serif">686899</text>
<line x1="180" y1="452" x2="1450" y2="452" stroke="#374151" stroke-width="1"/>
<text x="170" y="462" text-anchor="end" fill="#d1d5db" font-size="30" font-family="Arial, sans-serif">858624</text>
<line x1="180" y1="674" x2="1450" y2="674" stroke="#e5e7eb" stroke-width="2"/>
<line x1="180" y1="674" x2="180" y2="452" stroke="#e5e7eb" stroke-width="2"/>
<rect x="210" y="673" width="28" height="1" fill="#4e79a7"/>
<rect x="245" y="673" width="28" height="1" fill="#59a14f"/>
<rect x="280" y="673" width="28" height="1" fill="#e15759"/>
<text x="259" y="756" text-anchor="middle" fill="#d1d5db" font-size="30" font-family="Arial, sans-serif">memory</text>
<rect x="368" y="672" width="28" height="2" fill="#4e79a7"/>
<rect x="403" y="642" width="28" height="32" fill="#59a14f"/>
<rect x="438" y="673" width="28" height="1" fill="#e15759"/>
<text x="417" y="756" text-anchor="middle" fill="#d1d5db" font-size="30" font-family="Arial, sans-serif">file</text>
<rect x="526" y="673" width="28" height="1" fill="#4e79a7"/>
<rect x="561" y="670" width="28" height="4" fill="#59a14f"/>
<rect x="596" y="673" width="28" height="1" fill="#e15759"/>
<text x="575" y="756" text-anchor="middle" fill="#d1d5db" font-size="30" font-family="Arial, sans-serif">sqlite</text>
<rect x="684" y="652" width="28" height="22" fill="#4e79a7"/>
<rect x="719" y="522" width="28" height="152" fill="#59a14f"/>
<rect x="754" y="653" width="28" height="21" fill="#e15759"/>
<text x="733" y="756" text-anchor="middle" fill="#d1d5db" font-size="30" font-family="Arial, sans-serif">postgres</text>
<rect x="842" y="656" width="28" height="18" fill="#4e79a7"/>
<rect x="877" y="656" width="28" height="18" fill="#59a14f"/>
<rect x="912" y="656" width="28" height="18" fill="#e15759"/>
<text x="891" y="756" text-anchor="middle" fill="#d1d5db" font-size="30" font-family="Arial, sans-serif">redis</text>
<rect x="1000" y="656" width="28" height="18" fill="#4e79a7"/>
<rect x="1035" y="655" width="28" height="19" fill="#59a14f"/>
<rect x="1070" y="656" width="28" height="18" fill="#e15759"/>
<text x="1049" y="756" text-anchor="middle" fill="#d1d5db" font-size="30" font-family="Arial, sans-serif">memcached</text>
<rect x="1158" y="641" width="28" height="33" fill="#4e79a7"/>
<rect x="1193" y="473" width="28" height="201" fill="#59a14f"/>
<rect x="1228" y="500" width="28" height="174" fill="#e15759"/>
<text x="1207" y="756" text-anchor="middle" fill="#d1d5db" font-size="30" font-family="Arial, sans-serif">nats</text>
<rect x="1316" y="516" width="28" height="158" fill="#4e79a7"/>
<rect x="1351" y="650" width="28" height="24" fill="#59a14f"/>
<rect x="1386" y="531" width="28" height="143" fill="#e15759"/>
<text x="1365" y="756" text-anchor="middle" fill="#d1d5db" font-size="30" font-family="Arial, sans-serif">nats_bucket_ttl</text>
</svg>
